<?xml version="1.0"?>
<svg width="270" height="270" xmlns="http://www.w3.org/2000/svg" xmlns:svg="http://www.w3.org/2000/svg" clip-rule="evenodd" fill-rule="evenodd" stroke-linejoin="round" version="1.1" xml:space="preserve">
 <g class="layer">
  <title>Layer 1</title>
  <g id="svg_1" transform="matrix(1 0 0 1 -6.1827 -24.5326)">
   <g id="svg_2" transform="matrix(1.673846,0,0,1.32529,29.135528,108.368888)">
    <path d="m66.9,21l72,53.12l-72,53.12l-72,-53.12l72,-53.12z" fill="rgb(155,39,76)" id="svg_3"/>
    <path d="m69.61,15.14l72,53.12c1.65,1.22 2.67,3.45 2.67,5.86c0,2.42 -1.02,4.65 -2.67,5.87l-72,53.12c-1.67,1.23 -3.75,1.23 -5.42,0l-72,-53.12c-1.65,-1.22 -2.67,-3.45 -2.67,-5.87c0,-2.41 1.02,-4.64 2.67,-5.86l72,-53.12c1.67,-1.24 3.75,-1.24 5.42,0zm-2.71,5.86l-72,53.12l72,53.12l72,-53.12l-72,-53.12z" id="svg_4"/>
   </g>
   <g id="svg_5" transform="matrix(1,0,0,1,0,4.984612)">
    <path d="m141.12,32.08l120.51,70.4l-120.51,70.4l-120.52,-70.4l120.52,-70.4z" fill="rgb(155,39,76)" id="svg_6"/>
    <path d="m145.65,24.31l120.52,70.4c2.76,1.61 4.46,4.57 4.46,7.77c0,3.2 -1.7,6.16 -4.46,7.77l-120.52,70.4c-2.8,1.64 -6.27,1.64 -9.08,0l-120.51,-70.4c-2.76,-1.61 -4.46,-4.57 -4.46,-7.77c0,-3.2 1.7,-6.16 4.46,-7.77l120.51,-70.4c2.81,-1.64 6.28,-1.64 9.08,0zm-4.53,7.77l-120.52,70.4l120.52,70.4l120.51,-70.4l-120.51,-70.4z" id="svg_7"/>
   </g>
   <g id="svg_8" transform="matrix(1,0,0,1,-4.430766,1)">
    <path d="m88.11,153.5l0,38.52l53.01,27.13l0,-36.55l-53.01,-29.1z" fill="rgb(235,51,110)" id="svg_9"/>
    <path d="m92.44,145.61l53.01,29.1c2.87,1.58 4.67,4.61 4.67,7.89l0,36.55c0,3.14 -1.64,6.05 -4.31,7.68c-2.67,1.64 -6.01,1.76 -8.8,0.33l-53.01,-27.13c-3,-1.54 -4.89,-4.64 -4.89,-8.01l0,-38.52c0,-3.18 1.67,-6.12 4.41,-7.75c2.74,-1.62 6.13,-1.67 8.92,-0.14zm-4.33,7.89l0,38.52l53.01,27.13l0,-36.55l-53.01,-29.1z" id="svg_10"/>
   </g>
   <g id="svg_11" transform="matrix(-1,0,0,1,288.321817,1)">
    <path d="m88.11,153.5l0,38.52l53.01,27.13l0,-36.55l-53.01,-29.1z" fill="rgb(235,51,110)" id="svg_12"/>
    <path d="m79.11,153.5l0,38.52c0,3.37 1.89,6.47 4.89,8.01l53.01,27.13c2.79,1.43 6.13,1.31 8.8,-0.33c2.67,-1.63 4.31,-4.54 4.31,-7.68l0,-36.55c0,-3.28 -1.8,-6.31 -4.67,-7.89l-53.01,-29.1c-2.79,-1.53 -6.18,-1.48 -8.92,0.14c-2.74,1.63 -4.41,4.57 -4.41,7.75zm9,0l53.01,29.1l0,36.55l-53.01,-27.13l0,-38.52z" id="svg_13"/>
   </g>
  </g>
 </g>
</svg>