<?xml version="1.0" encoding="UTF-8" standalone="no"?>
<!DOCTYPE svg PUBLIC "-//W3C//DTD SVG 1.1//EN" "http://www.w3.org/Graphics/SVG/1.1/DTD/svg11.dtd">
<svg width="100%" height="100%" viewBox="0 0 900 309" version="1.1" xmlns="http://www.w3.org/2000/svg" xmlns:xlink="http://www.w3.org/1999/xlink" xml:space="preserve" xmlns:serif="http://www.serif.com/" style="fill-rule:evenodd;clip-rule:evenodd;stroke-linejoin:round;stroke-miterlimit:2;">
    <g transform="matrix(1,0,0,1,10.817284,-2.532609)">
        <g transform="matrix(1.673846,0,0,1.32529,29.135528,108.368888)">
            <path d="M66.899,21L138.899,74.122L66.899,127.244L-5.101,74.122L66.899,21Z" style="fill:rgb(155,39,76);"/>
            <path d="M69.611,15.136L141.611,68.258C143.262,69.476 144.276,71.708 144.276,74.122C144.276,76.536 143.262,78.768 141.611,79.986L69.611,133.107C67.936,134.344 65.863,134.344 64.187,133.107L-7.813,79.986C-9.463,78.768 -10.477,76.536 -10.477,74.122C-10.477,71.708 -9.463,69.476 -7.813,68.258L64.187,15.136C65.863,13.9 67.936,13.9 69.611,15.136ZM66.899,21L-5.101,74.122L66.899,127.244L138.899,74.122L66.899,21Z"/>
        </g>
        <g transform="matrix(1,0,0,1,0,4.984612)">
            <path d="M141.115,32.077L261.632,102.479L141.115,172.881L20.598,102.479L141.115,32.077Z" style="fill:rgb(155,39,76);"/>
            <path d="M145.654,24.306L266.171,94.708C268.934,96.321 270.632,99.28 270.632,102.479C270.632,105.678 268.934,108.636 266.171,110.25L145.654,180.652C142.85,182.29 139.38,182.29 136.575,180.652L16.058,110.25C13.296,108.636 11.598,105.678 11.598,102.479C11.598,99.28 13.296,96.321 16.058,94.708L136.575,24.306C139.38,22.667 142.85,22.667 145.654,24.306ZM141.115,32.077L20.598,102.479L141.115,172.881L261.632,102.479L141.115,32.077Z"/>
        </g>
        <g transform="matrix(1,0,0,1,-4.430766,1)">
            <path d="M88.105,153.5L88.105,192.016L141.115,219.154L141.115,182.6L88.105,153.5Z" style="fill:rgb(235,51,110);"/>
            <path d="M92.436,145.611L145.446,174.711C148.325,176.292 150.115,179.316 150.115,182.6L150.115,219.154C150.115,222.289 148.484,225.197 145.81,226.833C143.136,228.468 139.803,228.594 137.013,227.165L84.003,200.027C80.996,198.488 79.105,195.394 79.105,192.016L79.105,153.5C79.105,150.319 80.784,147.375 83.521,145.755C86.258,144.135 89.648,144.08 92.436,145.611ZM88.105,153.5L88.105,192.016L141.115,219.154L141.115,182.6L88.105,153.5Z"/>
        </g>
        <g transform="matrix(-1,0,0,1,288.321817,1)">
            <path d="M88.105,153.5L88.105,192.016L141.115,219.154L141.115,182.6L88.105,153.5Z" style="fill:rgb(235,51,110);"/>
            <path d="M79.105,153.5L79.105,192.016C79.105,195.394 80.996,198.488 84.003,200.027L137.013,227.165C139.803,228.594 143.136,228.468 145.81,226.833C148.484,225.197 150.115,222.289 150.115,219.154L150.115,182.6C150.115,179.316 148.325,176.292 145.446,174.711L92.436,145.611C89.648,144.08 86.258,144.135 83.521,145.755C80.784,147.375 79.105,150.319 79.105,153.5ZM88.105,153.5L141.115,182.6L141.115,219.154L88.105,192.016L88.105,153.5Z"/>
        </g>
    </g>
    <g transform="matrix(0.931102,0,0,0.697058,38.818735,46.851354)">
        <path d="M375.856,219.466L375.856,199.014L325.593,199.014L325.593,71.14L308.581,71.14L308.581,219.466L375.856,219.466Z" style="fill:rgb(155,39,76);fill-rule:nonzero;"/>
        <path d="M422.716,221.532C442.048,221.532 456.122,206.864 460.143,182.488L444.677,182.488C442.048,196.742 434.006,205.212 422.407,205.212C408.643,205.212 400.291,192.197 399.054,169.886L460.143,169.886C462.927,134.354 446.688,107.911 422.252,107.911C399.673,107.911 383.124,131.668 383.124,164.102C383.124,198.601 399.054,221.532 422.716,221.532ZM421.943,123.612C434.625,123.612 442.821,135.8 443.595,156.045L399.209,156.045C400.91,135.593 409.416,123.612 421.943,123.612Z" style="fill:rgb(155,39,76);fill-rule:nonzero;"/>
        <path d="M507.467,221.738C528.037,221.738 542.574,203.972 545.358,175.051L529.119,175.051C527.263,192.817 519.221,203.146 507.622,203.146C494.167,203.146 485.352,188.065 485.352,164.722C485.352,141.584 494.167,126.297 507.622,126.297C519.067,126.297 527.263,136.833 528.965,154.392L545.358,154.392C542.42,125.884 527.727,107.911 507.467,107.911C485.352,107.911 469.268,131.668 469.268,164.722C469.268,198.188 485.042,221.738 507.467,221.738Z" style="fill:rgb(155,39,76);fill-rule:nonzero;"/>
        <path d="M607.375,199.221C604.127,201.287 600.879,202.113 597.168,202.113C588.816,202.113 583.403,196.742 583.403,181.661L583.403,127.743L608.148,127.743L608.148,109.977L583.403,109.977L583.403,77.544L567.783,77.544L567.783,109.977L549.688,109.977L549.688,127.743L567.783,127.743L567.783,186.413C567.783,210.583 578.3,221.532 593.456,221.532C598.405,221.532 602.58,220.499 607.375,217.607L607.375,199.221Z" style="fill:rgb(155,39,76);fill-rule:nonzero;"/>
        <path d="M654.39,221.532C673.722,221.532 687.796,206.864 691.817,182.488L676.351,182.488C673.722,196.742 665.68,205.212 654.081,205.212C640.316,205.212 631.965,192.197 630.728,169.886L691.817,169.886C694.6,134.354 678.362,107.911 653.926,107.911C631.346,107.911 614.798,131.668 614.798,164.102C614.798,198.601 630.728,221.532 654.39,221.532ZM653.617,123.612C666.299,123.612 674.495,135.8 675.269,156.045L630.882,156.045C632.584,135.593 641.09,123.612 653.617,123.612Z" style="fill:rgb(155,39,76);fill-rule:nonzero;"/>
        <path d="M723.985,163.482C723.985,139.312 736.821,128.983 754.452,130.222L754.452,108.531C740.997,108.531 728.625,118.034 722.902,133.114L722.902,109.977L708.365,109.977L708.365,219.466L723.985,219.466L723.985,163.482Z" style="fill:rgb(155,39,76);fill-rule:nonzero;"/>
        <path d="M800.23,221.532C819.562,221.532 833.636,206.864 837.657,182.488L822.191,182.488C819.562,196.742 811.52,205.212 799.921,205.212C786.156,205.212 777.805,192.197 776.568,169.886L837.657,169.886C840.44,134.354 824.202,107.911 799.766,107.911C777.186,107.911 760.638,131.668 760.638,164.102C760.638,198.601 776.568,221.532 800.23,221.532ZM799.457,123.612C812.139,123.612 820.335,135.8 821.109,156.045L776.722,156.045C778.424,135.593 786.93,123.612 799.457,123.612Z" style="fill:rgb(155,39,76);fill-rule:nonzero;"/>
    </g>
</svg>
